<?xml version="1.0" encoding="utf-8"?>
<!-- Generator: Adobe Illustrator 27.7.0, SVG Export Plug-In . SVG Version: 6.00 Build 0)  -->
<svg version="1.1" id="Layer_1" xmlns="http://www.w3.org/2000/svg" xmlns:xlink="http://www.w3.org/1999/xlink" x="0px" y="0px"
	 viewBox="0 0 512 512" style="enable-background:new 0 0 512 512;" xml:space="preserve">
<g>
	<path d="M256,153.6v25.6c14.13,0.03,25.57,11.47,25.6,25.6v102.4c-0.03,14.13-11.47,25.57-25.6,25.6
		c-14.13-0.03-25.57-11.47-25.6-25.6l0-102.4c0.03-14.13,11.47-25.57,25.6-25.6V153.6V128c-42.43,0.02-76.78,34.37-76.8,76.8v102.4
		c0.02,42.43,34.37,76.78,76.8,76.8c42.43-0.02,76.78-34.37,76.8-76.8V204.8c-0.02-42.43-34.37-76.78-76.8-76.8V153.6z"/>
	<path d="M358.4,153.6v204.8c0,6.74,2.73,13.34,7.5,18.1c4.77,4.77,11.36,7.5,18.1,7.5h102.4c14.14,0,25.6-11.46,25.6-25.6
		c0-14.14-11.46-25.6-25.6-25.6h-76.8V153.6c0-14.14-11.46-25.6-25.6-25.6C369.86,128,358.4,139.46,358.4,153.6L358.4,153.6z"/>
	<path d="M263.5,350.9l25.6,25.6c10,10,26.21,10,36.2,0c10-10,10-26.21,0-36.2l-25.6-25.6c-10-10-26.21-10-36.2,0
		C253.5,324.7,253.5,340.9,263.5,350.9"/>
	<path d="M0,332.8c0.02,28.29,22.91,51.18,51.2,51.2h51.2c28.29-0.02,51.18-22.91,51.2-51.2l0-51.2
		c-0.02-28.29-22.91-51.18-51.2-51.2H51.2h0l0-51.2v0l51.2,0v0c0,14.14,11.46,25.6,25.6,25.6c14.14,0,25.6-11.46,25.6-25.6
		c-0.02-28.29-22.91-51.18-51.2-51.2H51.2C22.91,128.02,0.02,150.91,0,179.2v51.2c0.02,28.29,22.91,51.18,51.2,51.2l51.2,0v51.2
		H51.2h0c0-14.14-11.46-25.6-25.6-25.6S0,318.66,0,332.8L0,332.8z"/>
</g>
</svg>
